<svg xmlns="http://www.w3.org/2000/svg" width="1536" height="807" viewBox="0 0 1536 807" role="img" aria-label="متخصص بیماری‌های عفونی چه بیماری‌هایی را درمان می‌کند؟">
  <defs>
    <linearGradient id="bg" x1="0" x2="1" y1="0" y2="1">
      <stop offset="0" stop-color="#eefbff"/>
      <stop offset="0.55" stop-color="#ffffff"/>
      <stop offset="1" stop-color="#dff5fb"/>
    </linearGradient>
    <linearGradient id="teal" x1="0" x2="1">
      <stop offset="0" stop-color="#00a8a8"/>
      <stop offset="1" stop-color="#0ea5d8"/>
    </linearGradient>
    <filter id="soft" x="-20%" y="-20%" width="140%" height="140%">
      <feGaussianBlur stdDeviation="18"/>
    </filter>
    <style>
      .dark{fill:#0b3768}.teal{fill:#008b8b}.muted{fill:#496678}.small{font:700 34px Tahoma,Arial,sans-serif}.body{font:700 40px Tahoma,Arial,sans-serif}.title{font:900 70px Tahoma,Arial,sans-serif}.subtitle{font:700 34px Tahoma,Arial,sans-serif}.microbe{fill:#72d2ef;opacity:.35}.iconStroke{fill:none;stroke:#0ea5d8;stroke-width:12;stroke-linecap:round;stroke-linejoin:round}.iconFill{fill:#b7edf8;stroke:#0ea5d8;stroke-width:8}
    </style>
  </defs>
  <rect width="1536" height="807" fill="url(#bg)"/>
  <circle cx="70" cy="62" r="82" class="microbe" filter="url(#soft)"/>
  <circle cx="1390" cy="680" r="110" class="microbe" filter="url(#soft)"/>
  <circle cx="540" cy="105" r="24" class="microbe"/>
  <circle cx="1190" cy="120" r="18" class="microbe"/>
  <circle cx="1280" cy="620" r="34" class="microbe"/>
  <path d="M1120 660c55-18 111-18 167 0" stroke="#7ed8ee" stroke-width="18" opacity=".35" stroke-linecap="round"/>
  <path d="M1180 710c75-26 151-26 225 0" stroke="#7ed8ee" stroke-width="18" opacity=".25" stroke-linecap="round"/>

  <g transform="translate(128 120)">
    <circle cx="95" cy="92" r="78" fill="#eefbff" stroke="#b9e5f2" stroke-width="6"/>
    <path class="iconStroke" d="M95 43v82M95 92c-20-35-50-35-58 0 20 0 38 8 58 33M95 92c20-35 50-35 58 0-20 0-38 8-58 33"/>
    <text x="95" y="210" text-anchor="middle" class="small dark">عفونت‌های</text>
    <text x="95" y="255" text-anchor="middle" class="small dark">تنفسی</text>
  </g>

  <g transform="translate(118 355)">
    <circle cx="95" cy="92" r="78" fill="#eefbff" stroke="#b9e5f2" stroke-width="6"/>
    <path class="iconStroke" d="M72 70c-30 40-18 78 22 84 42 5 66-28 42-65"/>
    <path class="iconStroke" d="M105 62c18 20 35 41 52 64"/>
    <text x="95" y="210" text-anchor="middle" class="small dark">عفونت‌های</text>
    <text x="95" y="255" text-anchor="middle" class="small dark">گوارشی</text>
  </g>

  <g transform="translate(460 100)">
    <circle cx="95" cy="92" r="78" fill="#eefbff" stroke="#b9e5f2" stroke-width="6"/>
    <path class="iconStroke" d="M70 62c-8 34 6 61 25 78 20-17 34-44 25-78"/>
    <path class="iconStroke" d="M95 140v22M54 54c-23 26-8 62 31 66M136 54c23 26 8 62-31 66"/>
    <text x="95" y="210" text-anchor="middle" class="small dark">عفونت‌های</text>
    <text x="95" y="255" text-anchor="middle" class="small dark">ادراری</text>
  </g>

  <g transform="translate(445 355)">
    <circle cx="95" cy="92" r="78" fill="#eefbff" stroke="#b9e5f2" stroke-width="6"/>
    <rect x="52" y="68" width="86" height="52" rx="18" fill="#ffe8d8" stroke="#e8a77b" stroke-width="5" transform="rotate(-28 95 94)"/>
    <circle cx="95" cy="94" r="18" fill="#ff6b6b" stroke="#c44747" stroke-width="5"/>
    <text x="95" y="210" text-anchor="middle" class="small dark">عفونت‌های</text>
    <text x="95" y="255" text-anchor="middle" class="small dark">پوستی</text>
  </g>

  <g transform="translate(455 585)">
    <circle cx="95" cy="92" r="78" fill="#eefbff" stroke="#b9e5f2" stroke-width="6"/>
    <path class="iconStroke" d="M56 130l80-80M65 92l33 33M94 62l35 35"/>
    <rect x="132" y="102" width="38" height="55" rx="8" class="iconFill"/>
    <path class="iconStroke" d="M137 92h28"/>
    <text x="95" y="210" text-anchor="middle" class="small dark">واکسن و</text>
    <text x="95" y="255" text-anchor="middle" class="small dark">واکسیناسیون</text>
  </g>

  <g transform="translate(105 590)">
    <circle cx="95" cy="92" r="78" fill="#eefbff" stroke="#b9e5f2" stroke-width="6"/>
    <path class="iconStroke" d="M95 43v90"/>
    <circle cx="95" cy="142" r="24" fill="#ff5a5f"/>
    <path class="iconStroke" d="M78 43h34"/>
    <text x="95" y="210" text-anchor="middle" class="small dark">تب‌های</text>
    <text x="95" y="255" text-anchor="middle" class="small dark">طولانی</text>
  </g>

  <g transform="translate(805 120)">
    <text x="500" y="70" text-anchor="middle" class="title dark">متخصص</text>
    <text x="500" y="170" text-anchor="middle" class="title teal">بیماری‌های عفونی</text>
    <text x="500" y="270" text-anchor="middle" class="title dark">چه بیماری‌هایی را</text>
    <text x="500" y="370" text-anchor="middle" class="title dark">درمان می‌کند؟</text>
    <rect x="155" y="430" width="10" height="76" rx="5" fill="#0ea5d8"/>
    <text x="500" y="465" text-anchor="middle" class="subtitle" fill="#2f3d4d">بررسی عفونت‌های تنفسی، ادراری، پوستی،</text>
    <text x="500" y="515" text-anchor="middle" class="subtitle" fill="#2f3d4d">گوارشی، تب‌های طولانی و واکسیناسیون</text>
  </g>

  <g opacity=".22">
    <circle cx="1210" cy="630" r="46" fill="#0ea5d8"/>
    <circle cx="1210" cy="630" r="22" fill="#eefbff"/>
    <path d="M1210 570v-35M1210 690v35M1150 630h-35M1270 630h35M1168 588l-24-24M1252 672l24 24M1252 588l24-24M1168 672l-24 24" stroke="#0ea5d8" stroke-width="10" stroke-linecap="round"/>
    <ellipse cx="1370" cy="640" rx="100" ry="32" fill="#0ea5d8" transform="rotate(-10 1370 640)"/>
  </g>
</svg>